<?xml version="1.0" standalone="no"?>
<!DOCTYPE svg PUBLIC "-//W3C//DTD SVG 20010904//EN"
 "http://www.w3.org/TR/2001/REC-SVG-20010904/DTD/svg10.dtd">
<svg version="1.0" xmlns="http://www.w3.org/2000/svg"
 width="260.000000pt" height="260.000000pt" viewBox="0 0 260.000000 260.000000"
 preserveAspectRatio="xMidYMid meet">
<metadata>
Created by potrace 1.14, written by Peter Selinger 2001-2017
</metadata>
<g transform="translate(0.000000,260.000000) scale(0.100000,-0.100000)"
fill="#000000" stroke="none">
<path d="M552 1883 l3 -228 52 -3 c50 -3 53 -2 59 25 20 84 91 161 170 184 48
15 43 5 79 149 9 36 18 73 21 83 5 16 -9 17 -191 17 l-195 0 2 -227z"/>
<path d="M971 2073 c-30 -117 -41 -163 -41 -176 0 -13 14 -17 68 -19 l67 -3 0
-575 c-1 -511 -2 -579 -17 -612 -23 -50 -52 -66 -136 -74 l-72 -7 0 -58 0 -59
445 0 445 0 0 59 0 58 -67 6 c-94 8 -121 20 -141 64 -15 34 -17 97 -20 621
l-3 582 84 0 c46 0 105 -6 131 -14 35 -11 48 -11 51 -3 2 7 17 65 34 130 l29
117 -424 0 -423 0 -10 -37z"/>
<path d="M1867 2103 c-3 -5 -19 -67 -36 -139 l-31 -131 34 -36 c19 -20 43 -61
54 -89 l20 -53 56 -3 56 -3 0 231 0 230 -74 0 c-41 0 -77 -3 -79 -7z"/>
</g>
</svg>
